<?xml version="1.0" encoding="UTF-8" standalone="no"?>
<!DOCTYPE svg PUBLIC "-//W3C//DTD SVG 1.1//EN"
 "http://www.w3.org/Graphics/SVG/1.1/DTD/svg11.dtd">
<!-- Generated by graphviz version 13.0.1 (20250615.1724)
 -->
<!-- Title: model Pages: 1 -->
<svg width="170pt" height="864pt"
 viewBox="0.00 0.00 170.00 864.00" xmlns="http://www.w3.org/2000/svg" xmlns:xlink="http://www.w3.org/1999/xlink">
<g id="graph0" class="graph" transform="scale(0.929032 0.929032) rotate(0) translate(4 926)">
<title>model</title>
<polygon fill="white" stroke="none" points="-4,4 -4,-926 179.5,-926 179.5,4 -4,4"/>
<!-- 0 -->
<g id="node1" class="node">
<title>0</title>
<polygon fill="lightyellow" stroke="none" points="152.12,-922 23.38,-922 23.38,-886.5 152.12,-886.5 152.12,-922"/>
<polygon fill="none" stroke="black" points="23.38,-886.5 23.38,-922 85.12,-922 85.12,-886.5 23.38,-886.5"/>
<text xml:space="preserve" text-anchor="start" x="28.38" y="-907.5" font-family="Linux libertine" font-size="10.00">input&#45;tensor</text>
<text xml:space="preserve" text-anchor="start" x="37.75" y="-894.75" font-family="Linux libertine" font-size="10.00">depth:0</text>
<polygon fill="none" stroke="black" points="85.12,-886.5 85.12,-922 152.12,-922 152.12,-886.5 85.12,-886.5"/>
<text xml:space="preserve" text-anchor="start" x="90.12" y="-901.12" font-family="Linux libertine" font-size="10.00">(1, 1, 28, 28)</text>
</g>
<!-- 1 -->
<g id="node2" class="node">
<title>1</title>
<polygon fill="#c1ffc1" stroke="none" points="168.75,-850.5 6.75,-850.5 6.75,-805 168.75,-805 168.75,-850.5"/>
<polygon fill="none" stroke="black" points="6.75,-805 6.75,-850.5 49.75,-850.5 49.75,-805 6.75,-805"/>
<text xml:space="preserve" text-anchor="start" x="12.12" y="-831" font-family="Linux libertine" font-size="10.00">Conv2d</text>
<text xml:space="preserve" text-anchor="start" x="11.75" y="-818.25" font-family="Linux libertine" font-size="10.00">depth:1</text>
<polygon fill="none" stroke="black" points="49.75,-827.75 49.75,-850.5 93.5,-850.5 93.5,-827.75 49.75,-827.75"/>
<text xml:space="preserve" text-anchor="start" x="59.25" y="-836" font-family="Linux libertine" font-size="10.00">input:</text>
<polygon fill="none" stroke="black" points="93.5,-827.75 93.5,-850.5 168.75,-850.5 168.75,-827.75 93.5,-827.75"/>
<text xml:space="preserve" text-anchor="start" x="101.12" y="-836" font-family="Linux libertine" font-size="10.00">(1, 1, 28, 28) </text>
<polygon fill="none" stroke="black" points="49.75,-805 49.75,-827.75 93.5,-827.75 93.5,-805 49.75,-805"/>
<text xml:space="preserve" text-anchor="start" x="54.75" y="-813.25" font-family="Linux libertine" font-size="10.00">output: </text>
<polygon fill="none" stroke="black" points="93.5,-805 93.5,-827.75 168.75,-827.75 168.75,-805 93.5,-805"/>
<text xml:space="preserve" text-anchor="start" x="98.5" y="-813.25" font-family="Linux libertine" font-size="10.00">(1, 64, 28, 28) </text>
</g>
<!-- 0&#45;&gt;1 -->
<g id="edge1" class="edge">
<title>0&#45;&gt;1</title>
<path fill="none" stroke="black" d="M87.75,-886.72C87.75,-879.35 87.75,-870.39 87.75,-861.75"/>
<polygon fill="black" stroke="black" points="91.25,-861.85 87.75,-851.85 84.25,-861.85 91.25,-861.85"/>
</g>
<!-- 2 -->
<g id="node3" class="node">
<title>2</title>
<polygon fill="#c1ffc1" stroke="none" points="168.75,-769 6.75,-769 6.75,-723.5 168.75,-723.5 168.75,-769"/>
<polygon fill="none" stroke="black" points="6.75,-723.5 6.75,-769 49.75,-769 49.75,-723.5 6.75,-723.5"/>
<text xml:space="preserve" text-anchor="start" x="16.62" y="-749.5" font-family="Linux libertine" font-size="10.00">ReLU</text>
<text xml:space="preserve" text-anchor="start" x="11.75" y="-736.75" font-family="Linux libertine" font-size="10.00">depth:1</text>
<polygon fill="none" stroke="black" points="49.75,-746.25 49.75,-769 93.5,-769 93.5,-746.25 49.75,-746.25"/>
<text xml:space="preserve" text-anchor="start" x="59.25" y="-754.5" font-family="Linux libertine" font-size="10.00">input:</text>
<polygon fill="none" stroke="black" points="93.5,-746.25 93.5,-769 168.75,-769 168.75,-746.25 93.5,-746.25"/>
<text xml:space="preserve" text-anchor="start" x="98.5" y="-754.5" font-family="Linux libertine" font-size="10.00">(1, 64, 28, 28) </text>
<polygon fill="none" stroke="black" points="49.75,-723.5 49.75,-746.25 93.5,-746.25 93.5,-723.5 49.75,-723.5"/>
<text xml:space="preserve" text-anchor="start" x="54.75" y="-731.75" font-family="Linux libertine" font-size="10.00">output: </text>
<polygon fill="none" stroke="black" points="93.5,-723.5 93.5,-746.25 168.75,-746.25 168.75,-723.5 93.5,-723.5"/>
<text xml:space="preserve" text-anchor="start" x="98.5" y="-731.75" font-family="Linux libertine" font-size="10.00">(1, 64, 28, 28) </text>
</g>
<!-- 1&#45;&gt;2 -->
<g id="edge2" class="edge">
<title>1&#45;&gt;2</title>
<path fill="none" stroke="black" d="M87.75,-805.03C87.75,-797.4 87.75,-788.65 87.75,-780.31"/>
<polygon fill="black" stroke="black" points="91.25,-780.46 87.75,-770.46 84.25,-780.46 91.25,-780.46"/>
</g>
<!-- 3 -->
<g id="node4" class="node">
<title>3</title>
<polygon fill="#c1ffc1" stroke="none" points="175.5,-687.5 0,-687.5 0,-642 175.5,-642 175.5,-687.5"/>
<polygon fill="none" stroke="black" points="0,-642 0,-687.5 56.5,-687.5 56.5,-642 0,-642"/>
<text xml:space="preserve" text-anchor="start" x="5" y="-668" font-family="Linux libertine" font-size="10.00">MaxPool2d</text>
<text xml:space="preserve" text-anchor="start" x="11.75" y="-655.25" font-family="Linux libertine" font-size="10.00">depth:1</text>
<polygon fill="none" stroke="black" points="56.5,-664.75 56.5,-687.5 100.25,-687.5 100.25,-664.75 56.5,-664.75"/>
<text xml:space="preserve" text-anchor="start" x="66" y="-673" font-family="Linux libertine" font-size="10.00">input:</text>
<polygon fill="none" stroke="black" points="100.25,-664.75 100.25,-687.5 175.5,-687.5 175.5,-664.75 100.25,-664.75"/>
<text xml:space="preserve" text-anchor="start" x="105.25" y="-673" font-family="Linux libertine" font-size="10.00">(1, 64, 28, 28) </text>
<polygon fill="none" stroke="black" points="56.5,-642 56.5,-664.75 100.25,-664.75 100.25,-642 56.5,-642"/>
<text xml:space="preserve" text-anchor="start" x="61.5" y="-650.25" font-family="Linux libertine" font-size="10.00">output: </text>
<polygon fill="none" stroke="black" points="100.25,-642 100.25,-664.75 175.5,-664.75 175.5,-642 100.25,-642"/>
<text xml:space="preserve" text-anchor="start" x="110.5" y="-650.25" font-family="Linux libertine" font-size="10.00">(1, 64, 9, 9) </text>
</g>
<!-- 2&#45;&gt;3 -->
<g id="edge3" class="edge">
<title>2&#45;&gt;3</title>
<path fill="none" stroke="black" d="M87.75,-723.53C87.75,-715.9 87.75,-707.15 87.75,-698.81"/>
<polygon fill="black" stroke="black" points="91.25,-698.96 87.75,-688.96 84.25,-698.96 91.25,-698.96"/>
</g>
<!-- 4 -->
<g id="node5" class="node">
<title>4</title>
<polygon fill="#c1ffc1" stroke="none" points="164.25,-606 11.25,-606 11.25,-560.5 164.25,-560.5 164.25,-606"/>
<polygon fill="none" stroke="black" points="11.25,-560.5 11.25,-606 55.75,-606 55.75,-560.5 11.25,-560.5"/>
<text xml:space="preserve" text-anchor="start" x="16.25" y="-586.5" font-family="Linux libertine" font-size="10.00">Dropout</text>
<text xml:space="preserve" text-anchor="start" x="17" y="-573.75" font-family="Linux libertine" font-size="10.00">depth:1</text>
<polygon fill="none" stroke="black" points="55.75,-583.25 55.75,-606 99.5,-606 99.5,-583.25 55.75,-583.25"/>
<text xml:space="preserve" text-anchor="start" x="65.25" y="-591.5" font-family="Linux libertine" font-size="10.00">input:</text>
<polygon fill="none" stroke="black" points="99.5,-583.25 99.5,-606 164.25,-606 164.25,-583.25 99.5,-583.25"/>
<text xml:space="preserve" text-anchor="start" x="104.5" y="-591.5" font-family="Linux libertine" font-size="10.00">(1, 64, 9, 9) </text>
<polygon fill="none" stroke="black" points="55.75,-560.5 55.75,-583.25 99.5,-583.25 99.5,-560.5 55.75,-560.5"/>
<text xml:space="preserve" text-anchor="start" x="60.75" y="-568.75" font-family="Linux libertine" font-size="10.00">output: </text>
<polygon fill="none" stroke="black" points="99.5,-560.5 99.5,-583.25 164.25,-583.25 164.25,-560.5 99.5,-560.5"/>
<text xml:space="preserve" text-anchor="start" x="104.5" y="-568.75" font-family="Linux libertine" font-size="10.00">(1, 64, 9, 9) </text>
</g>
<!-- 3&#45;&gt;4 -->
<g id="edge4" class="edge">
<title>3&#45;&gt;4</title>
<path fill="none" stroke="black" d="M87.75,-642.03C87.75,-634.4 87.75,-625.65 87.75,-617.31"/>
<polygon fill="black" stroke="black" points="91.25,-617.46 87.75,-607.46 84.25,-617.46 91.25,-617.46"/>
</g>
<!-- 5 -->
<g id="node6" class="node">
<title>5</title>
<polygon fill="#c1ffc1" stroke="none" points="166.12,-524.5 9.38,-524.5 9.38,-479 166.12,-479 166.12,-524.5"/>
<polygon fill="none" stroke="black" points="9.38,-479 9.38,-524.5 52.38,-524.5 52.38,-479 9.38,-479"/>
<text xml:space="preserve" text-anchor="start" x="14.75" y="-505" font-family="Linux libertine" font-size="10.00">Conv2d</text>
<text xml:space="preserve" text-anchor="start" x="14.38" y="-492.25" font-family="Linux libertine" font-size="10.00">depth:1</text>
<polygon fill="none" stroke="black" points="52.38,-501.75 52.38,-524.5 96.12,-524.5 96.12,-501.75 52.38,-501.75"/>
<text xml:space="preserve" text-anchor="start" x="61.88" y="-510" font-family="Linux libertine" font-size="10.00">input:</text>
<polygon fill="none" stroke="black" points="96.12,-501.75 96.12,-524.5 166.12,-524.5 166.12,-501.75 96.12,-501.75"/>
<text xml:space="preserve" text-anchor="start" x="103.75" y="-510" font-family="Linux libertine" font-size="10.00">(1, 64, 9, 9) </text>
<polygon fill="none" stroke="black" points="52.38,-479 52.38,-501.75 96.12,-501.75 96.12,-479 52.38,-479"/>
<text xml:space="preserve" text-anchor="start" x="57.38" y="-487.25" font-family="Linux libertine" font-size="10.00">output: </text>
<polygon fill="none" stroke="black" points="96.12,-479 96.12,-501.75 166.12,-501.75 166.12,-479 96.12,-479"/>
<text xml:space="preserve" text-anchor="start" x="101.12" y="-487.25" font-family="Linux libertine" font-size="10.00">(1, 128, 9, 9) </text>
</g>
<!-- 4&#45;&gt;5 -->
<g id="edge5" class="edge">
<title>4&#45;&gt;5</title>
<path fill="none" stroke="black" d="M87.75,-560.53C87.75,-552.9 87.75,-544.15 87.75,-535.81"/>
<polygon fill="black" stroke="black" points="91.25,-535.96 87.75,-525.96 84.25,-535.96 91.25,-535.96"/>
</g>
<!-- 6 -->
<g id="node7" class="node">
<title>6</title>
<polygon fill="#c1ffc1" stroke="none" points="166.12,-443 9.38,-443 9.38,-397.5 166.12,-397.5 166.12,-443"/>
<polygon fill="none" stroke="black" points="9.38,-397.5 9.38,-443 52.38,-443 52.38,-397.5 9.38,-397.5"/>
<text xml:space="preserve" text-anchor="start" x="19.25" y="-423.5" font-family="Linux libertine" font-size="10.00">ReLU</text>
<text xml:space="preserve" text-anchor="start" x="14.38" y="-410.75" font-family="Linux libertine" font-size="10.00">depth:1</text>
<polygon fill="none" stroke="black" points="52.38,-420.25 52.38,-443 96.12,-443 96.12,-420.25 52.38,-420.25"/>
<text xml:space="preserve" text-anchor="start" x="61.88" y="-428.5" font-family="Linux libertine" font-size="10.00">input:</text>
<polygon fill="none" stroke="black" points="96.12,-420.25 96.12,-443 166.12,-443 166.12,-420.25 96.12,-420.25"/>
<text xml:space="preserve" text-anchor="start" x="101.12" y="-428.5" font-family="Linux libertine" font-size="10.00">(1, 128, 9, 9) </text>
<polygon fill="none" stroke="black" points="52.38,-397.5 52.38,-420.25 96.12,-420.25 96.12,-397.5 52.38,-397.5"/>
<text xml:space="preserve" text-anchor="start" x="57.38" y="-405.75" font-family="Linux libertine" font-size="10.00">output: </text>
<polygon fill="none" stroke="black" points="96.12,-397.5 96.12,-420.25 166.12,-420.25 166.12,-397.5 96.12,-397.5"/>
<text xml:space="preserve" text-anchor="start" x="101.12" y="-405.75" font-family="Linux libertine" font-size="10.00">(1, 128, 9, 9) </text>
</g>
<!-- 5&#45;&gt;6 -->
<g id="edge6" class="edge">
<title>5&#45;&gt;6</title>
<path fill="none" stroke="black" d="M87.75,-479.03C87.75,-471.4 87.75,-462.65 87.75,-454.31"/>
<polygon fill="black" stroke="black" points="91.25,-454.46 87.75,-444.46 84.25,-454.46 91.25,-454.46"/>
</g>
<!-- 7 -->
<g id="node8" class="node">
<title>7</title>
<polygon fill="#c1ffc1" stroke="none" points="172.88,-361.5 2.62,-361.5 2.62,-316 172.88,-316 172.88,-361.5"/>
<polygon fill="none" stroke="black" points="2.62,-316 2.62,-361.5 59.12,-361.5 59.12,-316 2.62,-316"/>
<text xml:space="preserve" text-anchor="start" x="7.62" y="-342" font-family="Linux libertine" font-size="10.00">MaxPool2d</text>
<text xml:space="preserve" text-anchor="start" x="14.38" y="-329.25" font-family="Linux libertine" font-size="10.00">depth:1</text>
<polygon fill="none" stroke="black" points="59.12,-338.75 59.12,-361.5 102.88,-361.5 102.88,-338.75 59.12,-338.75"/>
<text xml:space="preserve" text-anchor="start" x="68.62" y="-347" font-family="Linux libertine" font-size="10.00">input:</text>
<polygon fill="none" stroke="black" points="102.88,-338.75 102.88,-361.5 172.88,-361.5 172.88,-338.75 102.88,-338.75"/>
<text xml:space="preserve" text-anchor="start" x="107.88" y="-347" font-family="Linux libertine" font-size="10.00">(1, 128, 9, 9) </text>
<polygon fill="none" stroke="black" points="59.12,-316 59.12,-338.75 102.88,-338.75 102.88,-316 59.12,-316"/>
<text xml:space="preserve" text-anchor="start" x="64.12" y="-324.25" font-family="Linux libertine" font-size="10.00">output: </text>
<polygon fill="none" stroke="black" points="102.88,-316 102.88,-338.75 172.88,-338.75 172.88,-316 102.88,-316"/>
<text xml:space="preserve" text-anchor="start" x="107.88" y="-324.25" font-family="Linux libertine" font-size="10.00">(1, 128, 3, 3) </text>
</g>
<!-- 6&#45;&gt;7 -->
<g id="edge7" class="edge">
<title>6&#45;&gt;7</title>
<path fill="none" stroke="black" d="M87.75,-397.53C87.75,-389.9 87.75,-381.15 87.75,-372.81"/>
<polygon fill="black" stroke="black" points="91.25,-372.96 87.75,-362.96 84.25,-372.96 91.25,-372.96"/>
</g>
<!-- 8 -->
<g id="node9" class="node">
<title>8</title>
<polygon fill="#c1ffc1" stroke="none" points="166.12,-280 9.38,-280 9.38,-234.5 166.12,-234.5 166.12,-280"/>
<polygon fill="none" stroke="black" points="9.38,-234.5 9.38,-280 52.38,-280 52.38,-234.5 9.38,-234.5"/>
<text xml:space="preserve" text-anchor="start" x="16.25" y="-260.5" font-family="Linux libertine" font-size="10.00">Flatten</text>
<text xml:space="preserve" text-anchor="start" x="14.38" y="-247.75" font-family="Linux libertine" font-size="10.00">depth:1</text>
<polygon fill="none" stroke="black" points="52.38,-257.25 52.38,-280 96.12,-280 96.12,-257.25 52.38,-257.25"/>
<text xml:space="preserve" text-anchor="start" x="61.88" y="-265.5" font-family="Linux libertine" font-size="10.00">input:</text>
<polygon fill="none" stroke="black" points="96.12,-257.25 96.12,-280 166.12,-280 166.12,-257.25 96.12,-257.25"/>
<text xml:space="preserve" text-anchor="start" x="101.12" y="-265.5" font-family="Linux libertine" font-size="10.00">(1, 128, 3, 3) </text>
<polygon fill="none" stroke="black" points="52.38,-234.5 52.38,-257.25 96.12,-257.25 96.12,-234.5 52.38,-234.5"/>
<text xml:space="preserve" text-anchor="start" x="57.38" y="-242.75" font-family="Linux libertine" font-size="10.00">output: </text>
<polygon fill="none" stroke="black" points="96.12,-234.5 96.12,-257.25 166.12,-257.25 166.12,-234.5 96.12,-234.5"/>
<text xml:space="preserve" text-anchor="start" x="109.75" y="-242.75" font-family="Linux libertine" font-size="10.00">(1, 1152) </text>
</g>
<!-- 7&#45;&gt;8 -->
<g id="edge8" class="edge">
<title>7&#45;&gt;8</title>
<path fill="none" stroke="black" d="M87.75,-316.03C87.75,-308.4 87.75,-299.65 87.75,-291.31"/>
<polygon fill="black" stroke="black" points="91.25,-291.46 87.75,-281.46 84.25,-291.46 91.25,-291.46"/>
</g>
<!-- 9 -->
<g id="node10" class="node">
<title>9</title>
<polygon fill="#c1ffc1" stroke="none" points="158.25,-198.5 17.25,-198.5 17.25,-153 158.25,-153 158.25,-198.5"/>
<polygon fill="none" stroke="black" points="17.25,-153 17.25,-198.5 61.75,-198.5 61.75,-153 17.25,-153"/>
<text xml:space="preserve" text-anchor="start" x="22.25" y="-179" font-family="Linux libertine" font-size="10.00">Dropout</text>
<text xml:space="preserve" text-anchor="start" x="23" y="-166.25" font-family="Linux libertine" font-size="10.00">depth:1</text>
<polygon fill="none" stroke="black" points="61.75,-175.75 61.75,-198.5 105.5,-198.5 105.5,-175.75 61.75,-175.75"/>
<text xml:space="preserve" text-anchor="start" x="71.25" y="-184" font-family="Linux libertine" font-size="10.00">input:</text>
<polygon fill="none" stroke="black" points="105.5,-175.75 105.5,-198.5 158.25,-198.5 158.25,-175.75 105.5,-175.75"/>
<text xml:space="preserve" text-anchor="start" x="110.5" y="-184" font-family="Linux libertine" font-size="10.00">(1, 1152) </text>
<polygon fill="none" stroke="black" points="61.75,-153 61.75,-175.75 105.5,-175.75 105.5,-153 61.75,-153"/>
<text xml:space="preserve" text-anchor="start" x="66.75" y="-161.25" font-family="Linux libertine" font-size="10.00">output: </text>
<polygon fill="none" stroke="black" points="105.5,-153 105.5,-175.75 158.25,-175.75 158.25,-153 105.5,-153"/>
<text xml:space="preserve" text-anchor="start" x="110.5" y="-161.25" font-family="Linux libertine" font-size="10.00">(1, 1152) </text>
</g>
<!-- 8&#45;&gt;9 -->
<g id="edge9" class="edge">
<title>8&#45;&gt;9</title>
<path fill="none" stroke="black" d="M87.75,-234.53C87.75,-226.9 87.75,-218.15 87.75,-209.81"/>
<polygon fill="black" stroke="black" points="91.25,-209.96 87.75,-199.96 84.25,-209.96 91.25,-209.96"/>
</g>
<!-- 10 -->
<g id="node11" class="node">
<title>10</title>
<polygon fill="#c1ffc1" stroke="none" points="157.5,-117 18,-117 18,-71.5 157.5,-71.5 157.5,-117"/>
<polygon fill="none" stroke="black" points="18,-71.5 18,-117 61,-117 61,-71.5 18,-71.5"/>
<text xml:space="preserve" text-anchor="start" x="26" y="-97.5" font-family="Linux libertine" font-size="10.00">Linear</text>
<text xml:space="preserve" text-anchor="start" x="23" y="-84.75" font-family="Linux libertine" font-size="10.00">depth:1</text>
<polygon fill="none" stroke="black" points="61,-94.25 61,-117 104.75,-117 104.75,-94.25 61,-94.25"/>
<text xml:space="preserve" text-anchor="start" x="70.5" y="-102.5" font-family="Linux libertine" font-size="10.00">input:</text>
<polygon fill="none" stroke="black" points="104.75,-94.25 104.75,-117 157.5,-117 157.5,-94.25 104.75,-94.25"/>
<text xml:space="preserve" text-anchor="start" x="109.75" y="-102.5" font-family="Linux libertine" font-size="10.00">(1, 1152) </text>
<polygon fill="none" stroke="black" points="61,-71.5 61,-94.25 104.75,-94.25 104.75,-71.5 61,-71.5"/>
<text xml:space="preserve" text-anchor="start" x="66" y="-79.75" font-family="Linux libertine" font-size="10.00">output: </text>
<polygon fill="none" stroke="black" points="104.75,-71.5 104.75,-94.25 157.5,-94.25 157.5,-71.5 104.75,-71.5"/>
<text xml:space="preserve" text-anchor="start" x="115" y="-79.75" font-family="Linux libertine" font-size="10.00">(1, 10) </text>
</g>
<!-- 9&#45;&gt;10 -->
<g id="edge10" class="edge">
<title>9&#45;&gt;10</title>
<path fill="none" stroke="black" d="M87.75,-153.03C87.75,-145.4 87.75,-136.65 87.75,-128.31"/>
<polygon fill="black" stroke="black" points="91.25,-128.46 87.75,-118.46 84.25,-128.46 91.25,-128.46"/>
</g>
<!-- 11 -->
<g id="node12" class="node">
<title>11</title>
<polygon fill="lightyellow" stroke="none" points="141.25,-35.5 34.25,-35.5 34.25,0 141.25,0 141.25,-35.5"/>
<polygon fill="none" stroke="black" points="34.25,0 34.25,-35.5 102,-35.5 102,0 34.25,0"/>
<text xml:space="preserve" text-anchor="start" x="39.25" y="-21" font-family="Linux libertine" font-size="10.00">output&#45;tensor</text>
<text xml:space="preserve" text-anchor="start" x="51.62" y="-8.25" font-family="Linux libertine" font-size="10.00">depth:0</text>
<polygon fill="none" stroke="black" points="102,0 102,-35.5 141.25,-35.5 141.25,0 102,0"/>
<text xml:space="preserve" text-anchor="start" x="107" y="-14.62" font-family="Linux libertine" font-size="10.00">(1, 10)</text>
</g>
<!-- 10&#45;&gt;11 -->
<g id="edge11" class="edge">
<title>10&#45;&gt;11</title>
<path fill="none" stroke="black" d="M87.75,-71.7C87.75,-63.85 87.75,-54.85 87.75,-46.54"/>
<polygon fill="black" stroke="black" points="91.25,-46.56 87.75,-36.56 84.25,-46.56 91.25,-46.56"/>
</g>
</g>
</svg>
