<?xml version="1.0" encoding="UTF-8" standalone="no"?>
<!DOCTYPE svg PUBLIC "-//W3C//DTD SVG 1.1//EN"
 "http://www.w3.org/Graphics/SVG/1.1/DTD/svg11.dtd">
<!-- Generated by graphviz version 13.0.1 (20250615.1724)
 -->
<!-- Title: model Pages: 1 -->
<svg width="175pt" height="864pt"
 viewBox="0.00 0.00 175.00 864.00" xmlns="http://www.w3.org/2000/svg" xmlns:xlink="http://www.w3.org/1999/xlink">
<g id="graph0" class="graph" transform="scale(0.929032 0.929032) rotate(0) translate(4 926)">
<title>model</title>
<polygon fill="white" stroke="none" points="-4,4 -4,-926 184.75,-926 184.75,4 -4,4"/>
<!-- 0 -->
<g id="node1" class="node">
<title>0</title>
<polygon fill="lightyellow" stroke="none" points="154.75,-922 26,-922 26,-886.5 154.75,-886.5 154.75,-922"/>
<polygon fill="none" stroke="black" points="26,-886.5 26,-922 87.75,-922 87.75,-886.5 26,-886.5"/>
<text xml:space="preserve" text-anchor="start" x="31" y="-907.5" font-family="Linux libertine" font-size="10.00">input&#45;tensor</text>
<text xml:space="preserve" text-anchor="start" x="40.38" y="-894.75" font-family="Linux libertine" font-size="10.00">depth:0</text>
<polygon fill="none" stroke="black" points="87.75,-886.5 87.75,-922 154.75,-922 154.75,-886.5 87.75,-886.5"/>
<text xml:space="preserve" text-anchor="start" x="92.75" y="-901.12" font-family="Linux libertine" font-size="10.00">(1, 1, 28, 28)</text>
</g>
<!-- 1 -->
<g id="node2" class="node">
<title>1</title>
<polygon fill="#c1ffc1" stroke="none" points="174,-850.5 6.75,-850.5 6.75,-805 174,-805 174,-850.5"/>
<polygon fill="none" stroke="black" points="6.75,-805 6.75,-850.5 49.75,-850.5 49.75,-805 6.75,-805"/>
<text xml:space="preserve" text-anchor="start" x="12.12" y="-831" font-family="Linux libertine" font-size="10.00">Conv2d</text>
<text xml:space="preserve" text-anchor="start" x="11.75" y="-818.25" font-family="Linux libertine" font-size="10.00">depth:1</text>
<polygon fill="none" stroke="black" points="49.75,-827.75 49.75,-850.5 93.5,-850.5 93.5,-827.75 49.75,-827.75"/>
<text xml:space="preserve" text-anchor="start" x="59.25" y="-836" font-family="Linux libertine" font-size="10.00">input:</text>
<polygon fill="none" stroke="black" points="93.5,-827.75 93.5,-850.5 174,-850.5 174,-827.75 93.5,-827.75"/>
<text xml:space="preserve" text-anchor="start" x="103.75" y="-836" font-family="Linux libertine" font-size="10.00">(1, 1, 28, 28) </text>
<polygon fill="none" stroke="black" points="49.75,-805 49.75,-827.75 93.5,-827.75 93.5,-805 49.75,-805"/>
<text xml:space="preserve" text-anchor="start" x="54.75" y="-813.25" font-family="Linux libertine" font-size="10.00">output: </text>
<polygon fill="none" stroke="black" points="93.5,-805 93.5,-827.75 174,-827.75 174,-805 93.5,-805"/>
<text xml:space="preserve" text-anchor="start" x="98.5" y="-813.25" font-family="Linux libertine" font-size="10.00">(1, 128, 28, 28) </text>
</g>
<!-- 0&#45;&gt;1 -->
<g id="edge1" class="edge">
<title>0&#45;&gt;1</title>
<path fill="none" stroke="black" d="M90.38,-886.72C90.38,-879.35 90.38,-870.39 90.38,-861.75"/>
<polygon fill="black" stroke="black" points="93.88,-861.85 90.38,-851.85 86.88,-861.85 93.88,-861.85"/>
</g>
<!-- 2 -->
<g id="node3" class="node">
<title>2</title>
<polygon fill="#c1ffc1" stroke="none" points="174,-769 6.75,-769 6.75,-723.5 174,-723.5 174,-769"/>
<polygon fill="none" stroke="black" points="6.75,-723.5 6.75,-769 49.75,-769 49.75,-723.5 6.75,-723.5"/>
<text xml:space="preserve" text-anchor="start" x="16.62" y="-749.5" font-family="Linux libertine" font-size="10.00">ReLU</text>
<text xml:space="preserve" text-anchor="start" x="11.75" y="-736.75" font-family="Linux libertine" font-size="10.00">depth:1</text>
<polygon fill="none" stroke="black" points="49.75,-746.25 49.75,-769 93.5,-769 93.5,-746.25 49.75,-746.25"/>
<text xml:space="preserve" text-anchor="start" x="59.25" y="-754.5" font-family="Linux libertine" font-size="10.00">input:</text>
<polygon fill="none" stroke="black" points="93.5,-746.25 93.5,-769 174,-769 174,-746.25 93.5,-746.25"/>
<text xml:space="preserve" text-anchor="start" x="98.5" y="-754.5" font-family="Linux libertine" font-size="10.00">(1, 128, 28, 28) </text>
<polygon fill="none" stroke="black" points="49.75,-723.5 49.75,-746.25 93.5,-746.25 93.5,-723.5 49.75,-723.5"/>
<text xml:space="preserve" text-anchor="start" x="54.75" y="-731.75" font-family="Linux libertine" font-size="10.00">output: </text>
<polygon fill="none" stroke="black" points="93.5,-723.5 93.5,-746.25 174,-746.25 174,-723.5 93.5,-723.5"/>
<text xml:space="preserve" text-anchor="start" x="98.5" y="-731.75" font-family="Linux libertine" font-size="10.00">(1, 128, 28, 28) </text>
</g>
<!-- 1&#45;&gt;2 -->
<g id="edge2" class="edge">
<title>1&#45;&gt;2</title>
<path fill="none" stroke="black" d="M90.38,-805.03C90.38,-797.4 90.38,-788.65 90.38,-780.31"/>
<polygon fill="black" stroke="black" points="93.88,-780.46 90.38,-770.46 86.88,-780.46 93.88,-780.46"/>
</g>
<!-- 3 -->
<g id="node4" class="node">
<title>3</title>
<polygon fill="#c1ffc1" stroke="none" points="180.75,-687.5 0,-687.5 0,-642 180.75,-642 180.75,-687.5"/>
<polygon fill="none" stroke="black" points="0,-642 0,-687.5 56.5,-687.5 56.5,-642 0,-642"/>
<text xml:space="preserve" text-anchor="start" x="5" y="-668" font-family="Linux libertine" font-size="10.00">MaxPool2d</text>
<text xml:space="preserve" text-anchor="start" x="11.75" y="-655.25" font-family="Linux libertine" font-size="10.00">depth:1</text>
<polygon fill="none" stroke="black" points="56.5,-664.75 56.5,-687.5 100.25,-687.5 100.25,-664.75 56.5,-664.75"/>
<text xml:space="preserve" text-anchor="start" x="66" y="-673" font-family="Linux libertine" font-size="10.00">input:</text>
<polygon fill="none" stroke="black" points="100.25,-664.75 100.25,-687.5 180.75,-687.5 180.75,-664.75 100.25,-664.75"/>
<text xml:space="preserve" text-anchor="start" x="105.25" y="-673" font-family="Linux libertine" font-size="10.00">(1, 128, 28, 28) </text>
<polygon fill="none" stroke="black" points="56.5,-642 56.5,-664.75 100.25,-664.75 100.25,-642 56.5,-642"/>
<text xml:space="preserve" text-anchor="start" x="61.5" y="-650.25" font-family="Linux libertine" font-size="10.00">output: </text>
<polygon fill="none" stroke="black" points="100.25,-642 100.25,-664.75 180.75,-664.75 180.75,-642 100.25,-642"/>
<text xml:space="preserve" text-anchor="start" x="105.25" y="-650.25" font-family="Linux libertine" font-size="10.00">(1, 128, 14, 14) </text>
</g>
<!-- 2&#45;&gt;3 -->
<g id="edge3" class="edge">
<title>2&#45;&gt;3</title>
<path fill="none" stroke="black" d="M90.38,-723.53C90.38,-715.9 90.38,-707.15 90.38,-698.81"/>
<polygon fill="black" stroke="black" points="93.88,-698.96 90.38,-688.96 86.88,-698.96 93.88,-698.96"/>
</g>
<!-- 4 -->
<g id="node5" class="node">
<title>4</title>
<polygon fill="#c1ffc1" stroke="none" points="174.75,-606 6,-606 6,-560.5 174.75,-560.5 174.75,-606"/>
<polygon fill="none" stroke="black" points="6,-560.5 6,-606 50.5,-606 50.5,-560.5 6,-560.5"/>
<text xml:space="preserve" text-anchor="start" x="11" y="-586.5" font-family="Linux libertine" font-size="10.00">Dropout</text>
<text xml:space="preserve" text-anchor="start" x="11.75" y="-573.75" font-family="Linux libertine" font-size="10.00">depth:1</text>
<polygon fill="none" stroke="black" points="50.5,-583.25 50.5,-606 94.25,-606 94.25,-583.25 50.5,-583.25"/>
<text xml:space="preserve" text-anchor="start" x="60" y="-591.5" font-family="Linux libertine" font-size="10.00">input:</text>
<polygon fill="none" stroke="black" points="94.25,-583.25 94.25,-606 174.75,-606 174.75,-583.25 94.25,-583.25"/>
<text xml:space="preserve" text-anchor="start" x="99.25" y="-591.5" font-family="Linux libertine" font-size="10.00">(1, 128, 14, 14) </text>
<polygon fill="none" stroke="black" points="50.5,-560.5 50.5,-583.25 94.25,-583.25 94.25,-560.5 50.5,-560.5"/>
<text xml:space="preserve" text-anchor="start" x="55.5" y="-568.75" font-family="Linux libertine" font-size="10.00">output: </text>
<polygon fill="none" stroke="black" points="94.25,-560.5 94.25,-583.25 174.75,-583.25 174.75,-560.5 94.25,-560.5"/>
<text xml:space="preserve" text-anchor="start" x="99.25" y="-568.75" font-family="Linux libertine" font-size="10.00">(1, 128, 14, 14) </text>
</g>
<!-- 3&#45;&gt;4 -->
<g id="edge4" class="edge">
<title>3&#45;&gt;4</title>
<path fill="none" stroke="black" d="M90.38,-642.03C90.38,-634.4 90.38,-625.65 90.38,-617.31"/>
<polygon fill="black" stroke="black" points="93.88,-617.46 90.38,-607.46 86.88,-617.46 93.88,-617.46"/>
</g>
<!-- 5 -->
<g id="node6" class="node">
<title>5</title>
<polygon fill="#c1ffc1" stroke="none" points="174,-524.5 6.75,-524.5 6.75,-479 174,-479 174,-524.5"/>
<polygon fill="none" stroke="black" points="6.75,-479 6.75,-524.5 49.75,-524.5 49.75,-479 6.75,-479"/>
<text xml:space="preserve" text-anchor="start" x="12.12" y="-505" font-family="Linux libertine" font-size="10.00">Conv2d</text>
<text xml:space="preserve" text-anchor="start" x="11.75" y="-492.25" font-family="Linux libertine" font-size="10.00">depth:1</text>
<polygon fill="none" stroke="black" points="49.75,-501.75 49.75,-524.5 93.5,-524.5 93.5,-501.75 49.75,-501.75"/>
<text xml:space="preserve" text-anchor="start" x="59.25" y="-510" font-family="Linux libertine" font-size="10.00">input:</text>
<polygon fill="none" stroke="black" points="93.5,-501.75 93.5,-524.5 174,-524.5 174,-501.75 93.5,-501.75"/>
<text xml:space="preserve" text-anchor="start" x="98.5" y="-510" font-family="Linux libertine" font-size="10.00">(1, 128, 14, 14) </text>
<polygon fill="none" stroke="black" points="49.75,-479 49.75,-501.75 93.5,-501.75 93.5,-479 49.75,-479"/>
<text xml:space="preserve" text-anchor="start" x="54.75" y="-487.25" font-family="Linux libertine" font-size="10.00">output: </text>
<polygon fill="none" stroke="black" points="93.5,-479 93.5,-501.75 174,-501.75 174,-479 93.5,-479"/>
<text xml:space="preserve" text-anchor="start" x="98.5" y="-487.25" font-family="Linux libertine" font-size="10.00">(1, 256, 14, 14) </text>
</g>
<!-- 4&#45;&gt;5 -->
<g id="edge5" class="edge">
<title>4&#45;&gt;5</title>
<path fill="none" stroke="black" d="M90.38,-560.53C90.38,-552.9 90.38,-544.15 90.38,-535.81"/>
<polygon fill="black" stroke="black" points="93.88,-535.96 90.38,-525.96 86.88,-535.96 93.88,-535.96"/>
</g>
<!-- 6 -->
<g id="node7" class="node">
<title>6</title>
<polygon fill="#c1ffc1" stroke="none" points="174,-443 6.75,-443 6.75,-397.5 174,-397.5 174,-443"/>
<polygon fill="none" stroke="black" points="6.75,-397.5 6.75,-443 49.75,-443 49.75,-397.5 6.75,-397.5"/>
<text xml:space="preserve" text-anchor="start" x="16.62" y="-423.5" font-family="Linux libertine" font-size="10.00">ReLU</text>
<text xml:space="preserve" text-anchor="start" x="11.75" y="-410.75" font-family="Linux libertine" font-size="10.00">depth:1</text>
<polygon fill="none" stroke="black" points="49.75,-420.25 49.75,-443 93.5,-443 93.5,-420.25 49.75,-420.25"/>
<text xml:space="preserve" text-anchor="start" x="59.25" y="-428.5" font-family="Linux libertine" font-size="10.00">input:</text>
<polygon fill="none" stroke="black" points="93.5,-420.25 93.5,-443 174,-443 174,-420.25 93.5,-420.25"/>
<text xml:space="preserve" text-anchor="start" x="98.5" y="-428.5" font-family="Linux libertine" font-size="10.00">(1, 256, 14, 14) </text>
<polygon fill="none" stroke="black" points="49.75,-397.5 49.75,-420.25 93.5,-420.25 93.5,-397.5 49.75,-397.5"/>
<text xml:space="preserve" text-anchor="start" x="54.75" y="-405.75" font-family="Linux libertine" font-size="10.00">output: </text>
<polygon fill="none" stroke="black" points="93.5,-397.5 93.5,-420.25 174,-420.25 174,-397.5 93.5,-397.5"/>
<text xml:space="preserve" text-anchor="start" x="98.5" y="-405.75" font-family="Linux libertine" font-size="10.00">(1, 256, 14, 14) </text>
</g>
<!-- 5&#45;&gt;6 -->
<g id="edge6" class="edge">
<title>5&#45;&gt;6</title>
<path fill="none" stroke="black" d="M90.38,-479.03C90.38,-471.4 90.38,-462.65 90.38,-454.31"/>
<polygon fill="black" stroke="black" points="93.88,-454.46 90.38,-444.46 86.88,-454.46 93.88,-454.46"/>
</g>
<!-- 7 -->
<g id="node8" class="node">
<title>7</title>
<polygon fill="#c1ffc1" stroke="none" points="180.75,-361.5 0,-361.5 0,-316 180.75,-316 180.75,-361.5"/>
<polygon fill="none" stroke="black" points="0,-316 0,-361.5 56.5,-361.5 56.5,-316 0,-316"/>
<text xml:space="preserve" text-anchor="start" x="5" y="-342" font-family="Linux libertine" font-size="10.00">MaxPool2d</text>
<text xml:space="preserve" text-anchor="start" x="11.75" y="-329.25" font-family="Linux libertine" font-size="10.00">depth:1</text>
<polygon fill="none" stroke="black" points="56.5,-338.75 56.5,-361.5 100.25,-361.5 100.25,-338.75 56.5,-338.75"/>
<text xml:space="preserve" text-anchor="start" x="66" y="-347" font-family="Linux libertine" font-size="10.00">input:</text>
<polygon fill="none" stroke="black" points="100.25,-338.75 100.25,-361.5 180.75,-361.5 180.75,-338.75 100.25,-338.75"/>
<text xml:space="preserve" text-anchor="start" x="105.25" y="-347" font-family="Linux libertine" font-size="10.00">(1, 256, 14, 14) </text>
<polygon fill="none" stroke="black" points="56.5,-316 56.5,-338.75 100.25,-338.75 100.25,-316 56.5,-316"/>
<text xml:space="preserve" text-anchor="start" x="61.5" y="-324.25" font-family="Linux libertine" font-size="10.00">output: </text>
<polygon fill="none" stroke="black" points="100.25,-316 100.25,-338.75 180.75,-338.75 180.75,-316 100.25,-316"/>
<text xml:space="preserve" text-anchor="start" x="110.5" y="-324.25" font-family="Linux libertine" font-size="10.00">(1, 256, 7, 7) </text>
</g>
<!-- 6&#45;&gt;7 -->
<g id="edge7" class="edge">
<title>6&#45;&gt;7</title>
<path fill="none" stroke="black" d="M90.38,-397.53C90.38,-389.9 90.38,-381.15 90.38,-372.81"/>
<polygon fill="black" stroke="black" points="93.88,-372.96 90.38,-362.96 86.88,-372.96 93.88,-372.96"/>
</g>
<!-- 8 -->
<g id="node9" class="node">
<title>8</title>
<polygon fill="#c1ffc1" stroke="none" points="168.75,-280 12,-280 12,-234.5 168.75,-234.5 168.75,-280"/>
<polygon fill="none" stroke="black" points="12,-234.5 12,-280 55,-280 55,-234.5 12,-234.5"/>
<text xml:space="preserve" text-anchor="start" x="18.88" y="-260.5" font-family="Linux libertine" font-size="10.00">Flatten</text>
<text xml:space="preserve" text-anchor="start" x="17" y="-247.75" font-family="Linux libertine" font-size="10.00">depth:1</text>
<polygon fill="none" stroke="black" points="55,-257.25 55,-280 98.75,-280 98.75,-257.25 55,-257.25"/>
<text xml:space="preserve" text-anchor="start" x="64.5" y="-265.5" font-family="Linux libertine" font-size="10.00">input:</text>
<polygon fill="none" stroke="black" points="98.75,-257.25 98.75,-280 168.75,-280 168.75,-257.25 98.75,-257.25"/>
<text xml:space="preserve" text-anchor="start" x="103.75" y="-265.5" font-family="Linux libertine" font-size="10.00">(1, 256, 7, 7) </text>
<polygon fill="none" stroke="black" points="55,-234.5 55,-257.25 98.75,-257.25 98.75,-234.5 55,-234.5"/>
<text xml:space="preserve" text-anchor="start" x="60" y="-242.75" font-family="Linux libertine" font-size="10.00">output: </text>
<polygon fill="none" stroke="black" points="98.75,-234.5 98.75,-257.25 168.75,-257.25 168.75,-234.5 98.75,-234.5"/>
<text xml:space="preserve" text-anchor="start" x="109.75" y="-242.75" font-family="Linux libertine" font-size="10.00">(1, 12544) </text>
</g>
<!-- 7&#45;&gt;8 -->
<g id="edge8" class="edge">
<title>7&#45;&gt;8</title>
<path fill="none" stroke="black" d="M90.38,-316.03C90.38,-308.4 90.38,-299.65 90.38,-291.31"/>
<polygon fill="black" stroke="black" points="93.88,-291.46 90.38,-281.46 86.88,-291.46 93.88,-291.46"/>
</g>
<!-- 9 -->
<g id="node10" class="node">
<title>9</title>
<polygon fill="#c1ffc1" stroke="none" points="163.5,-198.5 17.25,-198.5 17.25,-153 163.5,-153 163.5,-198.5"/>
<polygon fill="none" stroke="black" points="17.25,-153 17.25,-198.5 61.75,-198.5 61.75,-153 17.25,-153"/>
<text xml:space="preserve" text-anchor="start" x="22.25" y="-179" font-family="Linux libertine" font-size="10.00">Dropout</text>
<text xml:space="preserve" text-anchor="start" x="23" y="-166.25" font-family="Linux libertine" font-size="10.00">depth:1</text>
<polygon fill="none" stroke="black" points="61.75,-175.75 61.75,-198.5 105.5,-198.5 105.5,-175.75 61.75,-175.75"/>
<text xml:space="preserve" text-anchor="start" x="71.25" y="-184" font-family="Linux libertine" font-size="10.00">input:</text>
<polygon fill="none" stroke="black" points="105.5,-175.75 105.5,-198.5 163.5,-198.5 163.5,-175.75 105.5,-175.75"/>
<text xml:space="preserve" text-anchor="start" x="110.5" y="-184" font-family="Linux libertine" font-size="10.00">(1, 12544) </text>
<polygon fill="none" stroke="black" points="61.75,-153 61.75,-175.75 105.5,-175.75 105.5,-153 61.75,-153"/>
<text xml:space="preserve" text-anchor="start" x="66.75" y="-161.25" font-family="Linux libertine" font-size="10.00">output: </text>
<polygon fill="none" stroke="black" points="105.5,-153 105.5,-175.75 163.5,-175.75 163.5,-153 105.5,-153"/>
<text xml:space="preserve" text-anchor="start" x="110.5" y="-161.25" font-family="Linux libertine" font-size="10.00">(1, 12544) </text>
</g>
<!-- 8&#45;&gt;9 -->
<g id="edge9" class="edge">
<title>8&#45;&gt;9</title>
<path fill="none" stroke="black" d="M90.38,-234.53C90.38,-226.9 90.38,-218.15 90.38,-209.81"/>
<polygon fill="black" stroke="black" points="93.88,-209.96 90.38,-199.96 86.88,-209.96 93.88,-209.96"/>
</g>
<!-- 10 -->
<g id="node11" class="node">
<title>10</title>
<polygon fill="#c1ffc1" stroke="none" points="162.75,-117 18,-117 18,-71.5 162.75,-71.5 162.75,-117"/>
<polygon fill="none" stroke="black" points="18,-71.5 18,-117 61,-117 61,-71.5 18,-71.5"/>
<text xml:space="preserve" text-anchor="start" x="26" y="-97.5" font-family="Linux libertine" font-size="10.00">Linear</text>
<text xml:space="preserve" text-anchor="start" x="23" y="-84.75" font-family="Linux libertine" font-size="10.00">depth:1</text>
<polygon fill="none" stroke="black" points="61,-94.25 61,-117 104.75,-117 104.75,-94.25 61,-94.25"/>
<text xml:space="preserve" text-anchor="start" x="70.5" y="-102.5" font-family="Linux libertine" font-size="10.00">input:</text>
<polygon fill="none" stroke="black" points="104.75,-94.25 104.75,-117 162.75,-117 162.75,-94.25 104.75,-94.25"/>
<text xml:space="preserve" text-anchor="start" x="109.75" y="-102.5" font-family="Linux libertine" font-size="10.00">(1, 12544) </text>
<polygon fill="none" stroke="black" points="61,-71.5 61,-94.25 104.75,-94.25 104.75,-71.5 61,-71.5"/>
<text xml:space="preserve" text-anchor="start" x="66" y="-79.75" font-family="Linux libertine" font-size="10.00">output: </text>
<polygon fill="none" stroke="black" points="104.75,-71.5 104.75,-94.25 162.75,-94.25 162.75,-71.5 104.75,-71.5"/>
<text xml:space="preserve" text-anchor="start" x="117.62" y="-79.75" font-family="Linux libertine" font-size="10.00">(1, 10) </text>
</g>
<!-- 9&#45;&gt;10 -->
<g id="edge10" class="edge">
<title>9&#45;&gt;10</title>
<path fill="none" stroke="black" d="M90.38,-153.03C90.38,-145.4 90.38,-136.65 90.38,-128.31"/>
<polygon fill="black" stroke="black" points="93.88,-128.46 90.38,-118.46 86.88,-128.46 93.88,-128.46"/>
</g>
<!-- 11 -->
<g id="node12" class="node">
<title>11</title>
<polygon fill="lightyellow" stroke="none" points="143.88,-35.5 36.88,-35.5 36.88,0 143.88,0 143.88,-35.5"/>
<polygon fill="none" stroke="black" points="36.88,0 36.88,-35.5 104.62,-35.5 104.62,0 36.88,0"/>
<text xml:space="preserve" text-anchor="start" x="41.88" y="-21" font-family="Linux libertine" font-size="10.00">output&#45;tensor</text>
<text xml:space="preserve" text-anchor="start" x="54.25" y="-8.25" font-family="Linux libertine" font-size="10.00">depth:0</text>
<polygon fill="none" stroke="black" points="104.62,0 104.62,-35.5 143.88,-35.5 143.88,0 104.62,0"/>
<text xml:space="preserve" text-anchor="start" x="109.62" y="-14.62" font-family="Linux libertine" font-size="10.00">(1, 10)</text>
</g>
<!-- 10&#45;&gt;11 -->
<g id="edge11" class="edge">
<title>10&#45;&gt;11</title>
<path fill="none" stroke="black" d="M90.38,-71.7C90.38,-63.85 90.38,-54.85 90.38,-46.54"/>
<polygon fill="black" stroke="black" points="93.88,-46.56 90.38,-36.56 86.88,-46.56 93.88,-46.56"/>
</g>
</g>
</svg>
