<?xml version="1.0" encoding="UTF-8" standalone="no"?>
<!DOCTYPE svg PUBLIC "-//W3C//DTD SVG 1.1//EN"
 "http://www.w3.org/Graphics/SVG/1.1/DTD/svg11.dtd">
<!-- Generated by graphviz version 2.42.4 (0)
 -->
<!-- Title: model Pages: 1 -->
<svg width="181pt" height="576pt"
 viewBox="0.00 0.00 181.00 576.00" xmlns="http://www.w3.org/2000/svg" xmlns:xlink="http://www.w3.org/1999/xlink">
<g id="graph0" class="graph" transform="scale(1 1) rotate(0) translate(4 572)">
<title>model</title>
<polygon fill="white" stroke="transparent" points="-4,4 -4,-572 177,-572 177,4 -4,4"/>
<!-- 0 -->
<g id="node1" class="node">
<title>0</title>
<polygon fill="lightyellow" stroke="transparent" points="149.5,-568 23.5,-568 23.5,-536 149.5,-536 149.5,-568"/>
<polygon fill="none" stroke="black" points="23.5,-536 23.5,-568 91.5,-568 91.5,-536 23.5,-536"/>
<text text-anchor="start" x="28.5" y="-555" font-family="Linux libertine" font-size="10.00">input&#45;tensor</text>
<text text-anchor="start" x="39" y="-544" font-family="Linux libertine" font-size="10.00">depth:0</text>
<polygon fill="none" stroke="black" points="91.5,-536 91.5,-568 149.5,-568 149.5,-536 91.5,-536"/>
<text text-anchor="start" x="96.5" y="-549.5" font-family="Linux libertine" font-size="10.00">(128, 103)</text>
</g>
<!-- 1 -->
<g id="node2" class="node">
<title>1</title>
<polygon fill="#c1ffc1" stroke="transparent" points="163.5,-500 9.5,-500 9.5,-458 163.5,-458 163.5,-500"/>
<polygon fill="none" stroke="black" points="9.5,-458 9.5,-500 56.5,-500 56.5,-458 9.5,-458"/>
<text text-anchor="start" x="18" y="-482" font-family="Linux libertine" font-size="10.00">Linear</text>
<text text-anchor="start" x="14.5" y="-471" font-family="Linux libertine" font-size="10.00">depth:1</text>
<polygon fill="none" stroke="black" points="56.5,-479 56.5,-500 103.5,-500 103.5,-479 56.5,-479"/>
<text text-anchor="start" x="66" y="-487" font-family="Linux libertine" font-size="10.00">input:</text>
<polygon fill="none" stroke="black" points="103.5,-479 103.5,-500 163.5,-500 163.5,-479 103.5,-479"/>
<text text-anchor="start" x="108.5" y="-487" font-family="Linux libertine" font-size="10.00">(128, 103) </text>
<polygon fill="none" stroke="black" points="56.5,-458 56.5,-479 103.5,-479 103.5,-458 56.5,-458"/>
<text text-anchor="start" x="61.5" y="-466" font-family="Linux libertine" font-size="10.00">output: </text>
<polygon fill="none" stroke="black" points="103.5,-458 103.5,-479 163.5,-479 163.5,-458 103.5,-458"/>
<text text-anchor="start" x="108.5" y="-466" font-family="Linux libertine" font-size="10.00">(128, 128) </text>
</g>
<!-- 0&#45;&gt;1 -->
<g id="edge1" class="edge">
<title>0&#45;&gt;1</title>
<path fill="none" stroke="black" d="M86.5,-535.94C86.5,-528.45 86.5,-519.12 86.5,-510.24"/>
<polygon fill="black" stroke="black" points="90,-510.16 86.5,-500.16 83,-510.16 90,-510.16"/>
</g>
<!-- 2 -->
<g id="node3" class="node">
<title>2</title>
<polygon fill="aliceblue" stroke="transparent" points="163.5,-422 9.5,-422 9.5,-380 163.5,-380 163.5,-422"/>
<polygon fill="none" stroke="black" points="9.5,-380 9.5,-422 56.5,-422 56.5,-380 9.5,-380"/>
<text text-anchor="start" x="24" y="-404" font-family="Linux libertine" font-size="10.00">add</text>
<text text-anchor="start" x="14.5" y="-393" font-family="Linux libertine" font-size="10.00">depth:1</text>
<polygon fill="none" stroke="black" points="56.5,-401 56.5,-422 103.5,-422 103.5,-401 56.5,-401"/>
<text text-anchor="start" x="66" y="-409" font-family="Linux libertine" font-size="10.00">input:</text>
<polygon fill="none" stroke="black" points="103.5,-401 103.5,-422 163.5,-422 163.5,-401 103.5,-401"/>
<text text-anchor="start" x="108.5" y="-409" font-family="Linux libertine" font-size="10.00">(128, 128) </text>
<polygon fill="none" stroke="black" points="56.5,-380 56.5,-401 103.5,-401 103.5,-380 56.5,-380"/>
<text text-anchor="start" x="61.5" y="-388" font-family="Linux libertine" font-size="10.00">output: </text>
<polygon fill="none" stroke="black" points="103.5,-380 103.5,-401 163.5,-401 163.5,-380 103.5,-380"/>
<text text-anchor="start" x="108.5" y="-388" font-family="Linux libertine" font-size="10.00">(128, 128) </text>
</g>
<!-- 1&#45;&gt;2 -->
<g id="edge2" class="edge">
<title>1&#45;&gt;2</title>
<path fill="none" stroke="black" d="M86.5,-457.63C86.5,-449.82 86.5,-440.73 86.5,-432.18"/>
<polygon fill="black" stroke="black" points="90,-432.16 86.5,-422.16 83,-432.16 90,-432.16"/>
</g>
<!-- 3 -->
<g id="node4" class="node">
<title>3</title>
<polygon fill="#c1ffc1" stroke="transparent" points="163.5,-344 9.5,-344 9.5,-302 163.5,-302 163.5,-344"/>
<polygon fill="none" stroke="black" points="9.5,-302 9.5,-344 56.5,-344 56.5,-302 9.5,-302"/>
<text text-anchor="start" x="18" y="-326" font-family="Linux libertine" font-size="10.00">Linear</text>
<text text-anchor="start" x="14.5" y="-315" font-family="Linux libertine" font-size="10.00">depth:1</text>
<polygon fill="none" stroke="black" points="56.5,-323 56.5,-344 103.5,-344 103.5,-323 56.5,-323"/>
<text text-anchor="start" x="66" y="-331" font-family="Linux libertine" font-size="10.00">input:</text>
<polygon fill="none" stroke="black" points="103.5,-323 103.5,-344 163.5,-344 163.5,-323 103.5,-323"/>
<text text-anchor="start" x="108.5" y="-331" font-family="Linux libertine" font-size="10.00">(128, 128) </text>
<polygon fill="none" stroke="black" points="56.5,-302 56.5,-323 103.5,-323 103.5,-302 56.5,-302"/>
<text text-anchor="start" x="61.5" y="-310" font-family="Linux libertine" font-size="10.00">output: </text>
<polygon fill="none" stroke="black" points="103.5,-302 103.5,-323 163.5,-323 163.5,-302 103.5,-302"/>
<text text-anchor="start" x="108.5" y="-310" font-family="Linux libertine" font-size="10.00">(128, 103) </text>
</g>
<!-- 2&#45;&gt;3 -->
<g id="edge3" class="edge">
<title>2&#45;&gt;3</title>
<path fill="none" stroke="black" d="M86.5,-379.63C86.5,-371.82 86.5,-362.73 86.5,-354.18"/>
<polygon fill="black" stroke="black" points="90,-354.16 86.5,-344.16 83,-354.16 90,-354.16"/>
</g>
<!-- 4 -->
<g id="node5" class="node">
<title>4</title>
<polygon fill="#c1ffc1" stroke="transparent" points="165,-266 8,-266 8,-224 165,-224 165,-266"/>
<polygon fill="none" stroke="black" points="8.5,-224 8.5,-266 58.5,-266 58.5,-224 8.5,-224"/>
<text text-anchor="start" x="13.5" y="-248" font-family="Linux libertine" font-size="10.00">Dropout</text>
<text text-anchor="start" x="15" y="-237" font-family="Linux libertine" font-size="10.00">depth:1</text>
<polygon fill="none" stroke="black" points="58.5,-245 58.5,-266 105.5,-266 105.5,-245 58.5,-245"/>
<text text-anchor="start" x="68" y="-253" font-family="Linux libertine" font-size="10.00">input:</text>
<polygon fill="none" stroke="black" points="105.5,-245 105.5,-266 165.5,-266 165.5,-245 105.5,-245"/>
<text text-anchor="start" x="110.5" y="-253" font-family="Linux libertine" font-size="10.00">(128, 103) </text>
<polygon fill="none" stroke="black" points="58.5,-224 58.5,-245 105.5,-245 105.5,-224 58.5,-224"/>
<text text-anchor="start" x="63.5" y="-232" font-family="Linux libertine" font-size="10.00">output: </text>
<polygon fill="none" stroke="black" points="105.5,-224 105.5,-245 165.5,-245 165.5,-224 105.5,-224"/>
<text text-anchor="start" x="110.5" y="-232" font-family="Linux libertine" font-size="10.00">(128, 103) </text>
</g>
<!-- 3&#45;&gt;4 -->
<g id="edge4" class="edge">
<title>3&#45;&gt;4</title>
<path fill="none" stroke="black" d="M86.5,-301.63C86.5,-293.82 86.5,-284.73 86.5,-276.18"/>
<polygon fill="black" stroke="black" points="90,-276.16 86.5,-266.16 83,-276.16 90,-276.16"/>
</g>
<!-- 5 -->
<g id="node6" class="node">
<title>5</title>
<polygon fill="aliceblue" stroke="transparent" points="163.5,-188 9.5,-188 9.5,-146 163.5,-146 163.5,-188"/>
<polygon fill="none" stroke="black" points="9.5,-146 9.5,-188 56.5,-188 56.5,-146 9.5,-146"/>
<text text-anchor="start" x="26" y="-170" font-family="Linux libertine" font-size="10.00">div</text>
<text text-anchor="start" x="14.5" y="-159" font-family="Linux libertine" font-size="10.00">depth:1</text>
<polygon fill="none" stroke="black" points="56.5,-167 56.5,-188 103.5,-188 103.5,-167 56.5,-167"/>
<text text-anchor="start" x="66" y="-175" font-family="Linux libertine" font-size="10.00">input:</text>
<polygon fill="none" stroke="black" points="103.5,-167 103.5,-188 163.5,-188 163.5,-167 103.5,-167"/>
<text text-anchor="start" x="108.5" y="-175" font-family="Linux libertine" font-size="10.00">(128, 103) </text>
<polygon fill="none" stroke="black" points="56.5,-146 56.5,-167 103.5,-167 103.5,-146 56.5,-146"/>
<text text-anchor="start" x="61.5" y="-154" font-family="Linux libertine" font-size="10.00">output: </text>
<polygon fill="none" stroke="black" points="103.5,-146 103.5,-167 163.5,-167 163.5,-146 103.5,-146"/>
<text text-anchor="start" x="108.5" y="-154" font-family="Linux libertine" font-size="10.00">(128, 103) </text>
</g>
<!-- 4&#45;&gt;5 -->
<g id="edge5" class="edge">
<title>4&#45;&gt;5</title>
<path fill="none" stroke="black" d="M86.5,-223.63C86.5,-215.82 86.5,-206.73 86.5,-198.18"/>
<polygon fill="black" stroke="black" points="90,-198.16 86.5,-188.16 83,-198.16 90,-198.16"/>
</g>
<!-- 6 -->
<g id="node7" class="node">
<title>6</title>
<polygon fill="#c1ffc1" stroke="transparent" points="173,-110 0,-110 0,-68 173,-68 173,-110"/>
<polygon fill="none" stroke="black" points="0.5,-68 0.5,-110 66.5,-110 66.5,-68 0.5,-68"/>
<text text-anchor="start" x="5.5" y="-92" font-family="Linux libertine" font-size="10.00">LogSoftmax</text>
<text text-anchor="start" x="15" y="-81" font-family="Linux libertine" font-size="10.00">depth:1</text>
<polygon fill="none" stroke="black" points="66.5,-89 66.5,-110 113.5,-110 113.5,-89 66.5,-89"/>
<text text-anchor="start" x="76" y="-97" font-family="Linux libertine" font-size="10.00">input:</text>
<polygon fill="none" stroke="black" points="113.5,-89 113.5,-110 173.5,-110 173.5,-89 113.5,-89"/>
<text text-anchor="start" x="118.5" y="-97" font-family="Linux libertine" font-size="10.00">(128, 103) </text>
<polygon fill="none" stroke="black" points="66.5,-68 66.5,-89 113.5,-89 113.5,-68 66.5,-68"/>
<text text-anchor="start" x="71.5" y="-76" font-family="Linux libertine" font-size="10.00">output: </text>
<polygon fill="none" stroke="black" points="113.5,-68 113.5,-89 173.5,-89 173.5,-68 113.5,-68"/>
<text text-anchor="start" x="118.5" y="-76" font-family="Linux libertine" font-size="10.00">(128, 103) </text>
</g>
<!-- 5&#45;&gt;6 -->
<g id="edge6" class="edge">
<title>5&#45;&gt;6</title>
<path fill="none" stroke="black" d="M86.5,-145.63C86.5,-137.82 86.5,-128.73 86.5,-120.18"/>
<polygon fill="black" stroke="black" points="90,-120.16 86.5,-110.16 83,-120.16 90,-120.16"/>
</g>
<!-- 7 -->
<g id="node8" class="node">
<title>7</title>
<polygon fill="lightyellow" stroke="transparent" points="153.5,-32 19.5,-32 19.5,0 153.5,0 153.5,-32"/>
<polygon fill="none" stroke="black" points="19.5,0 19.5,-32 95.5,-32 95.5,0 19.5,0"/>
<text text-anchor="start" x="24.5" y="-19" font-family="Linux libertine" font-size="10.00">output&#45;tensor</text>
<text text-anchor="start" x="39" y="-8" font-family="Linux libertine" font-size="10.00">depth:0</text>
<polygon fill="none" stroke="black" points="95.5,0 95.5,-32 153.5,-32 153.5,0 95.5,0"/>
<text text-anchor="start" x="100.5" y="-13.5" font-family="Linux libertine" font-size="10.00">(128, 103)</text>
</g>
<!-- 6&#45;&gt;7 -->
<g id="edge7" class="edge">
<title>6&#45;&gt;7</title>
<path fill="none" stroke="black" d="M86.5,-67.84C86.5,-59.89 86.5,-50.66 86.5,-42.26"/>
<polygon fill="black" stroke="black" points="90,-42.24 86.5,-32.24 83,-42.24 90,-42.24"/>
</g>
</g>
</svg>