<?xml version="1.0" encoding="UTF-8" standalone="no"?>
<!DOCTYPE svg PUBLIC "-//W3C//DTD SVG 1.1//EN"
 "http://www.w3.org/Graphics/SVG/1.1/DTD/svg11.dtd">
<!-- Generated by graphviz version 2.42.4 (0)
 -->
<!-- Title: model Pages: 1 -->
<svg width="189pt" height="864pt"
 viewBox="0.00 0.00 188.76 864.00" xmlns="http://www.w3.org/2000/svg" xmlns:xlink="http://www.w3.org/1999/xlink">
<g id="graph0" class="graph" transform="scale(0.97 0.97) rotate(0) translate(4 884)">
<title>model</title>
<polygon fill="white" stroke="transparent" points="-4,4 -4,-884 190,-884 190,4 -4,4"/>
<!-- 0 -->
<g id="node1" class="node">
<title>0</title>
<polygon fill="lightyellow" stroke="transparent" points="161,-880 25,-880 25,-848 161,-848 161,-880"/>
<polygon fill="none" stroke="black" points="25,-848 25,-880 93,-880 93,-848 25,-848"/>
<text text-anchor="start" x="30" y="-867" font-family="Linux libertine" font-size="10.00">input&#45;tensor</text>
<text text-anchor="start" x="40.5" y="-856" font-family="Linux libertine" font-size="10.00">depth:0</text>
<polygon fill="none" stroke="black" points="93,-848 93,-880 161,-880 161,-848 93,-848"/>
<text text-anchor="start" x="98" y="-861.5" font-family="Linux libertine" font-size="10.00">(1, 1, 28, 28)</text>
</g>
<!-- 1 -->
<g id="node2" class="node">
<title>1</title>
<polygon fill="#c1ffc1" stroke="transparent" points="178.5,-812 7.5,-812 7.5,-770 178.5,-770 178.5,-812"/>
<polygon fill="none" stroke="black" points="8,-770 8,-812 55,-812 55,-770 8,-770"/>
<text text-anchor="start" x="13.5" y="-794" font-family="Linux libertine" font-size="10.00">Conv2d</text>
<text text-anchor="start" x="13" y="-783" font-family="Linux libertine" font-size="10.00">depth:1</text>
<polygon fill="none" stroke="black" points="55,-791 55,-812 102,-812 102,-791 55,-791"/>
<text text-anchor="start" x="64.5" y="-799" font-family="Linux libertine" font-size="10.00">input:</text>
<polygon fill="none" stroke="black" points="102,-791 102,-812 179,-812 179,-791 102,-791"/>
<text text-anchor="start" x="110" y="-799" font-family="Linux libertine" font-size="10.00">(1, 1, 28, 28) </text>
<polygon fill="none" stroke="black" points="55,-770 55,-791 102,-791 102,-770 55,-770"/>
<text text-anchor="start" x="60" y="-778" font-family="Linux libertine" font-size="10.00">output: </text>
<polygon fill="none" stroke="black" points="102,-770 102,-791 179,-791 179,-770 102,-770"/>
<text text-anchor="start" x="107" y="-778" font-family="Linux libertine" font-size="10.00">(1, 64, 28, 28) </text>
</g>
<!-- 0&#45;&gt;1 -->
<g id="edge1" class="edge">
<title>0&#45;&gt;1</title>
<path fill="none" stroke="black" d="M93,-847.94C93,-840.45 93,-831.12 93,-822.24"/>
<polygon fill="black" stroke="black" points="96.5,-822.16 93,-812.16 89.5,-822.16 96.5,-822.16"/>
</g>
<!-- 2 -->
<g id="node3" class="node">
<title>2</title>
<polygon fill="#c1ffc1" stroke="transparent" points="178.5,-734 7.5,-734 7.5,-692 178.5,-692 178.5,-734"/>
<polygon fill="none" stroke="black" points="8,-692 8,-734 55,-734 55,-692 8,-692"/>
<text text-anchor="start" x="19" y="-716" font-family="Linux libertine" font-size="10.00">ReLU</text>
<text text-anchor="start" x="13" y="-705" font-family="Linux libertine" font-size="10.00">depth:1</text>
<polygon fill="none" stroke="black" points="55,-713 55,-734 102,-734 102,-713 55,-713"/>
<text text-anchor="start" x="64.5" y="-721" font-family="Linux libertine" font-size="10.00">input:</text>
<polygon fill="none" stroke="black" points="102,-713 102,-734 179,-734 179,-713 102,-713"/>
<text text-anchor="start" x="107" y="-721" font-family="Linux libertine" font-size="10.00">(1, 64, 28, 28) </text>
<polygon fill="none" stroke="black" points="55,-692 55,-713 102,-713 102,-692 55,-692"/>
<text text-anchor="start" x="60" y="-700" font-family="Linux libertine" font-size="10.00">output: </text>
<polygon fill="none" stroke="black" points="102,-692 102,-713 179,-713 179,-692 102,-692"/>
<text text-anchor="start" x="107" y="-700" font-family="Linux libertine" font-size="10.00">(1, 64, 28, 28) </text>
</g>
<!-- 1&#45;&gt;2 -->
<g id="edge2" class="edge">
<title>1&#45;&gt;2</title>
<path fill="none" stroke="black" d="M93,-769.63C93,-761.82 93,-752.73 93,-744.18"/>
<polygon fill="black" stroke="black" points="96.5,-744.16 93,-734.16 89.5,-744.16 96.5,-744.16"/>
</g>
<!-- 3 -->
<g id="node4" class="node">
<title>3</title>
<polygon fill="#c1ffc1" stroke="transparent" points="186,-656 0,-656 0,-614 186,-614 186,-656"/>
<polygon fill="none" stroke="black" points="0,-614 0,-656 62,-656 62,-614 0,-614"/>
<text text-anchor="start" x="5" y="-638" font-family="Linux libertine" font-size="10.00">MaxPool2d</text>
<text text-anchor="start" x="12.5" y="-627" font-family="Linux libertine" font-size="10.00">depth:1</text>
<polygon fill="none" stroke="black" points="62,-635 62,-656 109,-656 109,-635 62,-635"/>
<text text-anchor="start" x="71.5" y="-643" font-family="Linux libertine" font-size="10.00">input:</text>
<polygon fill="none" stroke="black" points="109,-635 109,-656 186,-656 186,-635 109,-635"/>
<text text-anchor="start" x="114" y="-643" font-family="Linux libertine" font-size="10.00">(1, 64, 28, 28) </text>
<polygon fill="none" stroke="black" points="62,-614 62,-635 109,-635 109,-614 62,-614"/>
<text text-anchor="start" x="67" y="-622" font-family="Linux libertine" font-size="10.00">output: </text>
<polygon fill="none" stroke="black" points="109,-614 109,-635 186,-635 186,-614 109,-614"/>
<text text-anchor="start" x="120" y="-622" font-family="Linux libertine" font-size="10.00">(1, 64, 9, 9) </text>
</g>
<!-- 2&#45;&gt;3 -->
<g id="edge3" class="edge">
<title>2&#45;&gt;3</title>
<path fill="none" stroke="black" d="M93,-691.63C93,-683.82 93,-674.73 93,-666.18"/>
<polygon fill="black" stroke="black" points="96.5,-666.16 93,-656.16 89.5,-666.16 96.5,-666.16"/>
</g>
<!-- 4 -->
<g id="node5" class="node">
<title>4</title>
<polygon fill="#c1ffc1" stroke="transparent" points="174,-578 12,-578 12,-536 174,-536 174,-578"/>
<polygon fill="none" stroke="black" points="12,-536 12,-578 62,-578 62,-536 12,-536"/>
<text text-anchor="start" x="17" y="-560" font-family="Linux libertine" font-size="10.00">Dropout</text>
<text text-anchor="start" x="18.5" y="-549" font-family="Linux libertine" font-size="10.00">depth:1</text>
<polygon fill="none" stroke="black" points="62,-557 62,-578 109,-578 109,-557 62,-557"/>
<text text-anchor="start" x="71.5" y="-565" font-family="Linux libertine" font-size="10.00">input:</text>
<polygon fill="none" stroke="black" points="109,-557 109,-578 174,-578 174,-557 109,-557"/>
<text text-anchor="start" x="114" y="-565" font-family="Linux libertine" font-size="10.00">(1, 64, 9, 9) </text>
<polygon fill="none" stroke="black" points="62,-536 62,-557 109,-557 109,-536 62,-536"/>
<text text-anchor="start" x="67" y="-544" font-family="Linux libertine" font-size="10.00">output: </text>
<polygon fill="none" stroke="black" points="109,-536 109,-557 174,-557 174,-536 109,-536"/>
<text text-anchor="start" x="114" y="-544" font-family="Linux libertine" font-size="10.00">(1, 64, 9, 9) </text>
</g>
<!-- 3&#45;&gt;4 -->
<g id="edge4" class="edge">
<title>3&#45;&gt;4</title>
<path fill="none" stroke="black" d="M93,-613.63C93,-605.82 93,-596.73 93,-588.18"/>
<polygon fill="black" stroke="black" points="96.5,-588.16 93,-578.16 89.5,-588.16 96.5,-588.16"/>
</g>
<!-- 5 -->
<g id="node6" class="node">
<title>5</title>
<polygon fill="#c1ffc1" stroke="transparent" points="175.5,-500 10.5,-500 10.5,-458 175.5,-458 175.5,-500"/>
<polygon fill="none" stroke="black" points="11,-458 11,-500 58,-500 58,-458 11,-458"/>
<text text-anchor="start" x="16.5" y="-482" font-family="Linux libertine" font-size="10.00">Conv2d</text>
<text text-anchor="start" x="16" y="-471" font-family="Linux libertine" font-size="10.00">depth:1</text>
<polygon fill="none" stroke="black" points="58,-479 58,-500 105,-500 105,-479 58,-479"/>
<text text-anchor="start" x="67.5" y="-487" font-family="Linux libertine" font-size="10.00">input:</text>
<polygon fill="none" stroke="black" points="105,-479 105,-500 176,-500 176,-479 105,-479"/>
<text text-anchor="start" x="113" y="-487" font-family="Linux libertine" font-size="10.00">(1, 64, 9, 9) </text>
<polygon fill="none" stroke="black" points="58,-458 58,-479 105,-479 105,-458 58,-458"/>
<text text-anchor="start" x="63" y="-466" font-family="Linux libertine" font-size="10.00">output: </text>
<polygon fill="none" stroke="black" points="105,-458 105,-479 176,-479 176,-458 105,-458"/>
<text text-anchor="start" x="110" y="-466" font-family="Linux libertine" font-size="10.00">(1, 128, 9, 9) </text>
</g>
<!-- 4&#45;&gt;5 -->
<g id="edge5" class="edge">
<title>4&#45;&gt;5</title>
<path fill="none" stroke="black" d="M93,-535.63C93,-527.82 93,-518.73 93,-510.18"/>
<polygon fill="black" stroke="black" points="96.5,-510.16 93,-500.16 89.5,-510.16 96.5,-510.16"/>
</g>
<!-- 6 -->
<g id="node7" class="node">
<title>6</title>
<polygon fill="#c1ffc1" stroke="transparent" points="175.5,-422 10.5,-422 10.5,-380 175.5,-380 175.5,-422"/>
<polygon fill="none" stroke="black" points="11,-380 11,-422 58,-422 58,-380 11,-380"/>
<text text-anchor="start" x="22" y="-404" font-family="Linux libertine" font-size="10.00">ReLU</text>
<text text-anchor="start" x="16" y="-393" font-family="Linux libertine" font-size="10.00">depth:1</text>
<polygon fill="none" stroke="black" points="58,-401 58,-422 105,-422 105,-401 58,-401"/>
<text text-anchor="start" x="67.5" y="-409" font-family="Linux libertine" font-size="10.00">input:</text>
<polygon fill="none" stroke="black" points="105,-401 105,-422 176,-422 176,-401 105,-401"/>
<text text-anchor="start" x="110" y="-409" font-family="Linux libertine" font-size="10.00">(1, 128, 9, 9) </text>
<polygon fill="none" stroke="black" points="58,-380 58,-401 105,-401 105,-380 58,-380"/>
<text text-anchor="start" x="63" y="-388" font-family="Linux libertine" font-size="10.00">output: </text>
<polygon fill="none" stroke="black" points="105,-380 105,-401 176,-401 176,-380 105,-380"/>
<text text-anchor="start" x="110" y="-388" font-family="Linux libertine" font-size="10.00">(1, 128, 9, 9) </text>
</g>
<!-- 5&#45;&gt;6 -->
<g id="edge6" class="edge">
<title>5&#45;&gt;6</title>
<path fill="none" stroke="black" d="M93,-457.63C93,-449.82 93,-440.73 93,-432.18"/>
<polygon fill="black" stroke="black" points="96.5,-432.16 93,-422.16 89.5,-432.16 96.5,-432.16"/>
</g>
<!-- 7 -->
<g id="node8" class="node">
<title>7</title>
<polygon fill="#c1ffc1" stroke="transparent" points="183,-344 3,-344 3,-302 183,-302 183,-344"/>
<polygon fill="none" stroke="black" points="3,-302 3,-344 65,-344 65,-302 3,-302"/>
<text text-anchor="start" x="8" y="-326" font-family="Linux libertine" font-size="10.00">MaxPool2d</text>
<text text-anchor="start" x="15.5" y="-315" font-family="Linux libertine" font-size="10.00">depth:1</text>
<polygon fill="none" stroke="black" points="65,-323 65,-344 112,-344 112,-323 65,-323"/>
<text text-anchor="start" x="74.5" y="-331" font-family="Linux libertine" font-size="10.00">input:</text>
<polygon fill="none" stroke="black" points="112,-323 112,-344 183,-344 183,-323 112,-323"/>
<text text-anchor="start" x="117" y="-331" font-family="Linux libertine" font-size="10.00">(1, 128, 9, 9) </text>
<polygon fill="none" stroke="black" points="65,-302 65,-323 112,-323 112,-302 65,-302"/>
<text text-anchor="start" x="70" y="-310" font-family="Linux libertine" font-size="10.00">output: </text>
<polygon fill="none" stroke="black" points="112,-302 112,-323 183,-323 183,-302 112,-302"/>
<text text-anchor="start" x="117" y="-310" font-family="Linux libertine" font-size="10.00">(1, 128, 3, 3) </text>
</g>
<!-- 6&#45;&gt;7 -->
<g id="edge7" class="edge">
<title>6&#45;&gt;7</title>
<path fill="none" stroke="black" d="M93,-379.63C93,-371.82 93,-362.73 93,-354.18"/>
<polygon fill="black" stroke="black" points="96.5,-354.16 93,-344.16 89.5,-354.16 96.5,-354.16"/>
</g>
<!-- 8 -->
<g id="node9" class="node">
<title>8</title>
<polygon fill="#c1ffc1" stroke="transparent" points="175.5,-266 10.5,-266 10.5,-224 175.5,-224 175.5,-266"/>
<polygon fill="none" stroke="black" points="11,-224 11,-266 58,-266 58,-224 11,-224"/>
<text text-anchor="start" x="18" y="-248" font-family="Linux libertine" font-size="10.00">Flatten</text>
<text text-anchor="start" x="16" y="-237" font-family="Linux libertine" font-size="10.00">depth:1</text>
<polygon fill="none" stroke="black" points="58,-245 58,-266 105,-266 105,-245 58,-245"/>
<text text-anchor="start" x="67.5" y="-253" font-family="Linux libertine" font-size="10.00">input:</text>
<polygon fill="none" stroke="black" points="105,-245 105,-266 176,-266 176,-245 105,-245"/>
<text text-anchor="start" x="110" y="-253" font-family="Linux libertine" font-size="10.00">(1, 128, 3, 3) </text>
<polygon fill="none" stroke="black" points="58,-224 58,-245 105,-245 105,-224 58,-224"/>
<text text-anchor="start" x="63" y="-232" font-family="Linux libertine" font-size="10.00">output: </text>
<polygon fill="none" stroke="black" points="105,-224 105,-245 176,-245 176,-224 105,-224"/>
<text text-anchor="start" x="118.5" y="-232" font-family="Linux libertine" font-size="10.00">(1, 1152) </text>
</g>
<!-- 7&#45;&gt;8 -->
<g id="edge8" class="edge">
<title>7&#45;&gt;8</title>
<path fill="none" stroke="black" d="M93,-301.63C93,-293.82 93,-284.73 93,-276.18"/>
<polygon fill="black" stroke="black" points="96.5,-276.16 93,-266.16 89.5,-276.16 96.5,-276.16"/>
</g>
<!-- 9 -->
<g id="node10" class="node">
<title>9</title>
<polygon fill="#c1ffc1" stroke="transparent" points="168.5,-188 17.5,-188 17.5,-146 168.5,-146 168.5,-188"/>
<polygon fill="none" stroke="black" points="18,-146 18,-188 68,-188 68,-146 18,-146"/>
<text text-anchor="start" x="23" y="-170" font-family="Linux libertine" font-size="10.00">Dropout</text>
<text text-anchor="start" x="24.5" y="-159" font-family="Linux libertine" font-size="10.00">depth:1</text>
<polygon fill="none" stroke="black" points="68,-167 68,-188 115,-188 115,-167 68,-167"/>
<text text-anchor="start" x="77.5" y="-175" font-family="Linux libertine" font-size="10.00">input:</text>
<polygon fill="none" stroke="black" points="115,-167 115,-188 169,-188 169,-167 115,-167"/>
<text text-anchor="start" x="120" y="-175" font-family="Linux libertine" font-size="10.00">(1, 1152) </text>
<polygon fill="none" stroke="black" points="68,-146 68,-167 115,-167 115,-146 68,-146"/>
<text text-anchor="start" x="73" y="-154" font-family="Linux libertine" font-size="10.00">output: </text>
<polygon fill="none" stroke="black" points="115,-146 115,-167 169,-167 169,-146 115,-146"/>
<text text-anchor="start" x="120" y="-154" font-family="Linux libertine" font-size="10.00">(1, 1152) </text>
</g>
<!-- 8&#45;&gt;9 -->
<g id="edge9" class="edge">
<title>8&#45;&gt;9</title>
<path fill="none" stroke="black" d="M93,-223.63C93,-215.82 93,-206.73 93,-198.18"/>
<polygon fill="black" stroke="black" points="96.5,-198.16 93,-188.16 89.5,-198.16 96.5,-198.16"/>
</g>
<!-- 10 -->
<g id="node11" class="node">
<title>10</title>
<polygon fill="#c1ffc1" stroke="transparent" points="167,-110 19,-110 19,-68 167,-68 167,-110"/>
<polygon fill="none" stroke="black" points="19,-68 19,-110 66,-110 66,-68 19,-68"/>
<text text-anchor="start" x="27.5" y="-92" font-family="Linux libertine" font-size="10.00">Linear</text>
<text text-anchor="start" x="24" y="-81" font-family="Linux libertine" font-size="10.00">depth:1</text>
<polygon fill="none" stroke="black" points="66,-89 66,-110 113,-110 113,-89 66,-89"/>
<text text-anchor="start" x="75.5" y="-97" font-family="Linux libertine" font-size="10.00">input:</text>
<polygon fill="none" stroke="black" points="113,-89 113,-110 167,-110 167,-89 113,-89"/>
<text text-anchor="start" x="118" y="-97" font-family="Linux libertine" font-size="10.00">(1, 1152) </text>
<polygon fill="none" stroke="black" points="66,-68 66,-89 113,-89 113,-68 66,-68"/>
<text text-anchor="start" x="71" y="-76" font-family="Linux libertine" font-size="10.00">output: </text>
<polygon fill="none" stroke="black" points="113,-68 113,-89 167,-89 167,-68 113,-68"/>
<text text-anchor="start" x="124" y="-76" font-family="Linux libertine" font-size="10.00">(1, 10) </text>
</g>
<!-- 9&#45;&gt;10 -->
<g id="edge10" class="edge">
<title>9&#45;&gt;10</title>
<path fill="none" stroke="black" d="M93,-145.63C93,-137.82 93,-128.73 93,-120.18"/>
<polygon fill="black" stroke="black" points="96.5,-120.16 93,-110.16 89.5,-120.16 96.5,-120.16"/>
</g>
<!-- 11 -->
<g id="node12" class="node">
<title>11</title>
<polygon fill="lightyellow" stroke="transparent" points="151,-32 35,-32 35,0 151,0 151,-32"/>
<polygon fill="none" stroke="black" points="35,0 35,-32 111,-32 111,0 35,0"/>
<text text-anchor="start" x="40" y="-19" font-family="Linux libertine" font-size="10.00">output&#45;tensor</text>
<text text-anchor="start" x="54.5" y="-8" font-family="Linux libertine" font-size="10.00">depth:0</text>
<polygon fill="none" stroke="black" points="111,0 111,-32 151,-32 151,0 111,0"/>
<text text-anchor="start" x="116" y="-13.5" font-family="Linux libertine" font-size="10.00">(1, 10)</text>
</g>
<!-- 10&#45;&gt;11 -->
<g id="edge11" class="edge">
<title>10&#45;&gt;11</title>
<path fill="none" stroke="black" d="M93,-67.84C93,-59.89 93,-50.66 93,-42.26"/>
<polygon fill="black" stroke="black" points="96.5,-42.24 93,-32.24 89.5,-42.24 96.5,-42.24"/>
</g>
</g>
</svg>